<?xml version="1.0" encoding="utf-8"?>
<!-- Generator: Adobe Illustrator 17.0.0, SVG Export Plug-In . SVG Version: 6.00 Build 0)  -->
<!DOCTYPE svg PUBLIC "-//W3C//DTD SVG 1.1//EN" "http://www.w3.org/Graphics/SVG/1.1/DTD/svg11.dtd">
<svg version="1.1" id="Layer_1" xmlns="http://www.w3.org/2000/svg" xmlns:xlink="http://www.w3.org/1999/xlink" x="0px" y="0px"
	 width="480px" height="480px" viewBox="0 0 480 480" enable-background="new 0 0 480 480" xml:space="preserve">
<g>
	<circle fill="#A4A8AB" cx="59.308" cy="245.634" r="33.98"/>
	<circle fill="#A4A8AB" cx="353.913" cy="65.766" r="48.465"/>
	<circle fill="#A4A8AB" cx="353.913" cy="414.977" r="48.465"/>
	<circle fill="#A4A8AB" cx="217.665" cy="245.897" r="24.743"/>
	<g>
		<g>
			<path fill="#61676D" d="M154.503,366.872c-10.872,0-19.717,8.845-19.717,19.717s8.845,19.717,19.717,19.717
				s19.717-8.845,19.717-19.717S165.375,366.872,154.503,366.872z"/>
			<path fill="#66B5C5" d="M154.461,74.755c-14.701,0-26.661,11.96-26.661,26.66s11.96,26.66,26.661,26.66s26.66-11.96,26.66-26.66
				S169.162,74.755,154.461,74.755z"/>
			<path fill="#A4A8AB" d="M445.625,207.689c-0.243-0.379-0.503-0.744-0.752-1.118c-5.556-8.717-13.077-16.155-22.051-21.672
				c-10.346-6.359-21.971-9.757-33.896-10.102c-0.061-0.003-0.122-0.003-0.183-0.006c-0.627-0.017-1.254-0.033-1.883-0.032
				c-6.929-0.088-13.779,0.854-20.369,2.807c-43.544,9.127-65.145-4.14-87.855-18.1c-23.672-14.551-45.865-28.192-56.811-74.059
				c-4.037-17.974-15.309-33.464-30.991-43.104s-34.297-12.52-52.453-8.187c-17.974,4.037-33.464,15.308-43.104,30.991
				s-12.52,34.297-8.187,52.453c4.037,17.974,15.309,33.464,30.991,43.104s34.297,12.52,52.453,8.187
				c46.164-10.764,68.356,2.877,91.732,17.246c10.333,6.351,20.383,12.53,29.34,21.291c20.264,21.001,22.373,50.553-0.123,73.486
				c-8.926,8.697-18.931,14.851-29.217,21.174c-23.376,14.369-45.569,28.01-91.732,17.246c-18.156-4.333-36.771-1.452-52.453,8.187
				s-26.955,25.13-30.991,43.104c-4.333,18.156-1.453,36.771,8.187,52.453s25.13,26.954,43.104,30.991
				c18.156,4.333,36.771,1.452,52.453-8.187s26.955-25.13,30.991-43.104c10.946-45.867,33.139-59.509,56.811-74.059
				c22.711-13.96,44.311-27.228,87.855-18.1c6.59,1.953,13.441,2.895,20.37,2.807c0.627,0,1.252-0.016,1.878-0.032
				c0.062-0.003,0.125-0.003,0.188-0.006c11.924-0.346,23.548-3.743,33.894-10.102c8.975-5.516,16.495-12.955,22.051-21.672
				c0.25-0.374,0.509-0.739,0.752-1.118c6.802-11.065,10.221-23.591,10.133-36.384C455.846,231.279,452.427,218.754,445.625,207.689
				z M154.461,143.075c-23.008,0-41.661-18.652-41.661-41.66s18.652-41.66,41.661-41.66s41.66,18.652,41.66,41.66
				S177.469,143.075,154.461,143.075z M154.503,421.306c-19.174,0-34.717-15.543-34.717-34.717
				c0-19.174,15.543-34.717,34.717-34.717s34.717,15.543,34.717,34.717C189.22,405.763,173.677,421.306,154.503,421.306z
				 M386.52,293.618c-27.372,0-49.64-22.268-49.64-49.64c0-27.371,22.268-49.64,49.64-49.64s49.64,22.268,49.64,49.64
				C436.16,271.349,413.892,293.618,386.52,293.618z"/>
		</g>
		<circle fill="#F69451" cx="386.52" cy="243.978" r="34.64"/>
	</g>
</g>
</svg>
